<svg width="15" height="15" viewBox="0 0 15 15" fill="none" xmlns="http://www.w3.org/2000/svg">
<g clip-path="url(#clip0_17_2)">
<path fill-rule="evenodd" clip-rule="evenodd" d="M14.73 12.996C14.267 14.403 12.453 15.105 11.157 14.988C9.387 14.828 7.461 13.889 5.999 12.855C3.85 11.335 1.837 8.984 0.663999 6.489C-0.165001 4.726 -0.351001 2.558 0.881999 0.951004C1.338 0.357004 1.832 0.0400036 2.572 0.00300357C3.6 -0.0469964 3.744 0.541004 4.097 1.457C4.36 2.142 4.711 2.841 4.907 3.551C5.274 4.876 3.991 4.931 3.829 6.014C3.729 6.697 4.556 7.613 4.93 8.1C5.65088 9.04848 6.53381 9.862 7.538 10.503C8.108 10.862 9.026 11.509 9.678 11.152C10.682 10.602 10.588 8.909 11.991 9.482C12.718 9.778 13.422 10.205 14.116 10.579C15.189 11.156 15.139 11.754 14.73 12.996C14.424 13.924 15.036 12.068 14.73 12.996" fill="white"/>
</g>
<defs>
<clipPath id="clip0_17_2">
<rect width="15" height="15" fill="white"/>
</clipPath>
</defs>
</svg>
