<svg width="16" height="16" viewBox="0 0 16 16" fill="none" xmlns="http://www.w3.org/2000/svg">
<g clip-path="url(#clip0_11_13)">
<path d="M12.6667 12H3.33333C2.96514 12 2.66666 12.2985 2.66666 12.6667C2.66666 13.0349 2.96514 13.3333 3.33333 13.3333H12.6667C13.0349 13.3333 13.3333 13.0349 13.3333 12.6667C13.3333 12.2985 13.0349 12 12.6667 12Z" fill="#4C4C4C"/>
<path d="M2.66666 11.3333V12.6667C2.66666 13.0349 2.96514 13.3333 3.33333 13.3333C3.70152 13.3333 4 13.0349 4 12.6667V11.3333C4 10.9651 3.70152 10.6667 3.33333 10.6667C2.96514 10.6667 2.66666 10.9651 2.66666 11.3333Z" fill="#4C4C4C"/>
<path d="M12 11.3333V12.6667C12 13.0349 12.2985 13.3333 12.6667 13.3333C13.0349 13.3333 13.3333 13.0349 13.3333 12.6667V11.3333C13.3333 10.9651 13.0349 10.6667 12.6667 10.6667C12.2985 10.6667 12 10.9651 12 11.3333Z" fill="#4C4C4C"/>
<path d="M8 10C7.86179 10.001 7.72667 9.95912 7.61334 9.88L4.94667 8C4.80294 7.89804 4.70543 7.74333 4.67545 7.56968C4.64547 7.39604 4.68545 7.21758 4.78667 7.07333C4.83719 7.00123 4.9015 6.93985 4.97587 6.89274C5.05025 6.84562 5.13322 6.81371 5.21999 6.79883C5.30677 6.78395 5.39563 6.78641 5.48145 6.80607C5.56727 6.82572 5.64835 6.86218 5.72 6.91333L8 8.50667L10.2667 6.8C10.4081 6.69391 10.5859 6.64836 10.761 6.67337C10.936 6.69837 11.0939 6.79188 11.2 6.93333C11.3061 7.07478 11.3516 7.25258 11.3266 7.42761C11.3016 7.60265 11.2081 7.76058 11.0667 7.86667L8.4 9.86667C8.28461 9.95321 8.14425 10 8 10V10Z" fill="#4C4C4C"/>
<path d="M8 8.66667C7.82319 8.66667 7.65362 8.59643 7.5286 8.4714C7.40357 8.34638 7.33334 8.17681 7.33334 8V2.66667C7.33334 2.48986 7.40357 2.32029 7.5286 2.19526C7.65362 2.07024 7.82319 2 8 2C8.17681 2 8.34638 2.07024 8.47141 2.19526C8.59643 2.32029 8.66667 2.48986 8.66667 2.66667V8C8.66667 8.17681 8.59643 8.34638 8.47141 8.4714C8.34638 8.59643 8.17681 8.66667 8 8.66667Z" fill="#4C4C4C"/>
</g>
<defs>
<clipPath id="clip0_11_13">
<rect width="16" height="16" fill="white"/>
</clipPath>
</defs>
</svg>
