<svg width="16" height="16" viewBox="0 0 16 16" fill="none" xmlns="http://www.w3.org/2000/svg">
<g clip-path="url(#clip0_11_27)">
<path d="M12.9333 4.89333L11.1067 3.06667C10.8683 2.84273 10.5559 2.71424 10.2289 2.70564C9.90191 2.69703 9.58319 2.80891 9.33333 3.02L3.33333 9.02C3.11784 9.23731 2.98367 9.52214 2.95333 9.82667L2.66667 12.6067C2.65769 12.7043 2.67036 12.8027 2.70377 12.8949C2.73719 12.9871 2.79053 13.0708 2.86 13.14C2.92229 13.2018 2.99617 13.2507 3.0774 13.2838C3.15862 13.317 3.2456 13.3338 3.33333 13.3333H3.39333L6.17333 13.08C6.47786 13.0497 6.76269 12.9155 6.98 12.7L12.98 6.7C13.2129 6.45398 13.3387 6.12567 13.33 5.78702C13.3212 5.44838 13.1786 5.12701 12.9333 4.89333V4.89333ZM6.05333 11.7467L4.05333 11.9333L4.23333 9.93333L8 6.21333L9.8 8.01333L6.05333 11.7467ZM10.6667 7.12L8.88 5.33333L10.18 4L12 5.82L10.6667 7.12Z" fill="#4C4C4C"/>
</g>
<defs>
<clipPath id="clip0_11_27">
<rect width="16" height="16" fill="white"/>
</clipPath>
</defs>
</svg>
