<?xml version="1.0" encoding="UTF-8"?> <svg xmlns="http://www.w3.org/2000/svg" id="Layer_2" data-name="Layer 2" viewBox="0 0 310.06 236.98"><defs><style> .cls-1 { fill: #22418b; } .cls-1, .cls-2, .cls-3, .cls-4, .cls-5, .cls-6, .cls-7, .cls-8, .cls-9, .cls-10, .cls-11, .cls-12, .cls-13, .cls-14, .cls-15, .cls-16, .cls-17, .cls-18, .cls-19, .cls-20, .cls-21, .cls-22, .cls-23, .cls-24, .cls-25, .cls-26, .cls-27, .cls-28, .cls-29, .cls-30, .cls-31, .cls-32 { fill-rule: evenodd; } .cls-2 { fill: #5793bc; } .cls-3 { fill: #5a59a7; } .cls-4 { fill: #fff; } .cls-5 { fill: #343b96; } .cls-6 { fill: #2f2f7f; } .cls-7 { fill: #d97783; } .cls-8 { fill: #c08d79; } .cls-9 { fill: #92adda; } .cls-33, .cls-17 { fill: #a7c0e4; } .cls-10 { fill: #ce4727; } .cls-11 { fill: #92c9ed; } .cls-12 { fill: #d1a291; } .cls-13 { fill: #92b0dc; } .cls-14 { fill: #d59091; } .cls-15 { fill: #698dc8; } .cls-16 { fill: #4f54a4; } .cls-18 { fill: #ef415f; } .cls-19 { fill: #f5babb; } .cls-34, .cls-27 { fill: #4369b2; } .cls-20 { fill: #d0def2; } .cls-21 { fill: #3e4099; } .cls-22 { fill: #c2d3ed; } .cls-23 { fill: #d52d48; } .cls-24 { fill: #e7552f; } .cls-25 { fill: #f4f6f7; } .cls-35, .cls-29 { fill: #426ab3; } .cls-26 { fill: #f8b7c0; } .cls-28 { fill: #5352a3; } .cls-30 { fill: #2952a4; } .cls-31 { fill: #f5929f; } .cls-32 { fill: #2f2e7e; } </style></defs><path class="cls-12" d="M28.34,193.21c-.91-.37-5,2.92-5.85,2.48l-11.92,41.05h5.58l11.31-38.96c-.8-.27,1.64-4.26,.88-4.58Z"></path><path class="cls-12" d="M42.25,194.81c-.89,.03-.43,5.25-1.28,5.23l10.65,36.7h5.58l-10.71-36.88c-.99,.08-3.29-5.08-4.24-5.05Z"></path><path class="cls-8" d="M42.74,195.08c-.18-.18-.35-.28-.48-.27-.89,.03-.43,5.25-1.28,5.23l10.65,36.7h2.79l-10.64-36.71c.18-1.66-.25-3.36-1.04-4.94Z"></path><path class="cls-8" d="M22.49,195.69l-11.92,41.05h2.79l11.4-39.99s.67-1.13,1.38-2.71c-1.46,.83-3.14,1.91-3.65,1.65Z"></path><path class="cls-25" d="M101.83,143.92v6.88c165.89,17.23,131.21,30.78,131.21-133.13C86.26,40.29,101.83,10.87,101.83,143.92Z"></path><path class="cls-27" d="M101.83,143.92v6.88c5.18,.54,10.16,1.07,14.96,1.6V36.42c-19.59,10.71-14.96,34.95-14.96,107.5Z"></path><path class="cls-20" d="M224.46,78.01l-73.89,11c-.85,.13-1.55,.93-1.55,1.78s.7,1.45,1.55,1.32l73.89-11c.85-.13,1.55-.93,1.55-1.78s-.7-1.45-1.55-1.32Z"></path><path class="cls-20" d="M224.46,70.18l-73.89,11c-.85,.13-1.55,.93-1.55,1.78s.7,1.45,1.55,1.32l73.89-11c.85-.13,1.55-.93,1.55-1.78s-.7-1.45-1.55-1.32Z"></path><path class="cls-20" d="M224.46,85.84l-73.89,11c-.85,.13-1.55,.93-1.55,1.78s.7,1.45,1.55,1.32l73.89-11c.85-.13,1.55-.93,1.55-1.78s-.7-1.45-1.55-1.32Z"></path><path class="cls-20" d="M224.46,62.35l-73.89,11c-.85,.13-1.55,.93-1.55,1.78s.7,1.45,1.55,1.32l73.89-11c.85-.13,1.55-.93,1.55-1.78s-.7-1.45-1.55-1.32Z"></path><path class="cls-20" d="M224.46,31.04l-58.11,8.65c-.85,.13-1.55,.93-1.55,1.78s.7,1.45,1.55,1.32l58.11-8.65c.85-.13,1.55-.93,1.55-1.78s-.7-1.45-1.55-1.32Z"></path><path class="cls-20" d="M224.46,38.87l-58.11,8.65c-.85,.13-1.55,.93-1.55,1.78s.7,1.45,1.55,1.32l58.11-8.65c.85-.13,1.55-.93,1.55-1.78s-.7-1.45-1.55-1.32Z"></path><path class="cls-20" d="M224.46,54.53l-73.89,11c-.85,.13-1.55,.93-1.55,1.78s.7,1.45,1.55,1.32l73.89-11c.85-.13,1.55-.93,1.55-1.78s-.7-1.45-1.55-1.32Z"></path><path class="cls-20" d="M224.46,46.7l-58.11,8.65c-.85,.13-1.55,.93-1.55,1.78s.7,1.45,1.55,1.32l58.11-8.65c.85-.13,1.55-.93,1.55-1.78s-.7-1.45-1.55-1.32Z"></path><path class="cls-35" d="M233.62,17.67v-.68l-.67,.1c-25.24,3.89-45.67,6.24-62.2,8.14-33.06,3.8-50.63,5.82-59.96,14.8-10.59,10.19-10.35,29.06-9.82,69.29,.13,10.03,.28,21.39,.28,34.59v7.4l.52,.05c15.97,1.66,30.18,3.29,42.71,4.74,50.34,5.8,73.82,8.5,84.4-2.23,9.25-9.39,8.36-28.8,6.68-65.19-.87-18.79-1.94-42.13-1.94-71.03Zm-5.57,135.4c-10.17,10.32-33.48,7.64-83.44,1.88-12.34-1.42-26.3-3.03-42.2-4.68v-6.36c0-12.85-.15-24.41-.28-34.6-.52-39.89-.76-58.6,9.47-68.44,9.05-8.71,26.48-10.71,59.29-14.48,16.41-1.89,36.64-4.21,61.58-8.04,.02,28.54,1.08,51.71,1.94,70.4,1.66,36.06,2.55,55.3-6.35,64.33Z"></path><path class="cls-31" d="M66.91,103.89c-7.03-3.03-8.19,4.61-8.67,5.76-.48,1.15-1.52-3.88-3.7-1.58-10.23,10.8-14.93,3.58-9.72,13.64,.51,.98,5.79-.1,6.39,1.28,1.41-1.28,3.39-3.07,3.39-3.07,3.09,3.09,4.97,2.85,4.97,2.85,2.12-1.27,4.3-6.25,4.3-6.25,.91,.67,1.7,.91,1.7,.91,.36-2.61,1.27-4.79,1.27-4.79,1.09-2.61,1.7-6.67,1.7-8.13,0-.05,0-.11,0-.17-.53-.08-1.07-.23-1.63-.47Z"></path><path class="cls-7" d="M58.24,109.65c-.48,1.15-1.52-3.88-3.7-1.58-9.67,10.21-13.07,3.63-8.48,11.42,.37,.62,3.38-.17,3.81,.67,.59-1,1.15-2.27,2.7-3.49,2.85-2.24,3.15-.73,5.34,.09,2.18,.82,3.94-2,3.88-5.79-.06-3.77,3.07-7.67,3.1-7.71-5.24-.88-6.21,5.35-6.64,6.38Z"></path><path class="cls-5" d="M51.08,94.8c-5.27,2.91-9.52,15.4-5.46,18.4,4.06,3,6.73-2.82,8.91-5.12,2.18-2.3,3.21,2.73,3.7,1.58,.48-1.15,1.64-8.79,8.67-5.76,7.03,3.03,11.7-8,11.7-8-16.19-1.88-22.25-4-27.53-1.09Z"></path><path class="cls-11" d="M60.48,154.04c-5.09-3.64-5.94-16.25-7.15-24.13-1.21-7.88-7.7-16.7-7.7-16.7,0,0-23.89,4.15-20.74,58.72,0,0,1.93,6.42,8.85,7.03,6.91,.61,10.73-.73,15.95-.85,5.21-.12,6.85-4.77,6.85-4.77,.29-3.62,1.34-7.6,1.34-7.6,0,0,15.4,.67,18.07-1.03s2.06-7.22,2.06-7.22c0,0-12.43,.18-17.52-3.46Z"></path><path class="cls-2" d="M38.77,126.57s-6.79,32.14,18.68,40.99c.24-1.1,.43-1.82,.43-1.82,0,0-20.56-3.52-19.1-39.17Z"></path><path class="cls-9" d="M57.87,135.55c-2.3-6.79-6.66-12.54-6.66-12.54h0c.96,2.22,1.76,4.6,2.12,6.9,1.21,7.88,2.06,20.49,7.15,24.13,5.09,3.64,17.52,3.46,17.52,3.46l.48-3.64c-20.01-1.94-18.31-11.52-20.62-18.31Z"></path><path class="cls-3" d="M58.74,172.06c-.41-.04-1.79,1.32-2.21,1.29,0,0-1.64,2.83-6.85,2.95-5.21,.12-8.97,2.06-15.89,1.46-6.91-.61-8.91-5.82-8.91-5.82,0,0-4.6,13.7,10.62,18.37,5.46,1.68,14.85-.13,26.01-.9,0,0,8-.97,7.15,7.64-.85,8.61,.61,26.56,.61,26.56,0,0,4.12,1.82,8.49,.61,0,0,.86-8.11,1.98-16.51,.81-6.09,4.37-13.48,5.24-16.9,2.03-7.99-1.73-16.46-26.23-18.73Z"></path><path class="cls-28" d="M73.3,189.38c.61-10.67-21.71-4.97-31.77-6.43-5.22-.75-7.01-3.11-7.53-5.2l-.2-.02c-6.91-.61-8.91-5.82-8.91-5.82,0,0-4.87,13.77,8.57,18.69,5.5,2.02,15.79-.38,28.06-1.23,0,0,8-.97,7.15,7.64-.85,8.61,.61,26.56,.61,26.56,0,0,1.71,.76,4.1,.97,0,0-.68-24.5-.07-35.17Z"></path><path class="cls-32" d="M76.91,170.29h-19.99c-.16,.98-.31,2.03-.39,3.05h0c.32,.03,.63,.05,.95,.08,24.69,2.27,26.93,10.49,24.89,18.51-.87,3.44-1.83,9.74-2.65,15.87,1.74,6.29,2.77,11.9,2.77,11.9l4.97,.12c1.82-7.88,3.27-36.5,2.06-43.66-.5-2.97-6.17-4.78-12.61-5.88Z"></path><path class="cls-18" d="M61.51,189.39c-32.29,2.23-36.61-9.18-36.85-14.66h0s-4.62,1.92-5.35-1.96c-.73-3.88-.73-29.83-13.34-30.8-12.61-.97-9.7,72.15,53.36,55.66,0,0,3.35-4.16,2.2-8.25h-.01Z"></path><path class="cls-23" d="M61.51,189.39c-13.17,.91-21.68-.45-27.17-2.75-7.97-3.34-9.54-8.66-9.69-11.91h0s-2.35,.98-3.96,.13c-.96,5.84-4.92,4.61-10.94-4.27-5.26-7.76-3.97-21.67-2.91-28.5-.29-.05-.57-.09-.87-.11-12.61-.97-9.7,72.15,53.36,55.66,0,0,3.35-4.16,2.2-8.25h-.01Z"></path><path class="cls-31" d="M77.43,162.78c6.38,.33,17.19-1.16,17.19-1.16l.61-1.33-17.16-1.82c.02,1.08-.04,2.86-.63,4.32Z"></path><path class="cls-31" d="M78.03,157.29c.89,.61,2.47,1.16,4.24,1.62l10.29,1.09,1.38-1.11-15.6-4-.32,2.4Z"></path><path class="cls-22" d="M103.16,158.22l-9.22,.67-1.38,1.11,2.65,.28-.61,1.33s-5.41,.75-10.83,1.07l-.99,2.09,26.19-1.33,9.58-23.4-9.1-2.3-6.31,20.49Z"></path><path class="cls-12" d="M127.84,162.4l-2.91-2.91-14.31-.07-1.64,4.01-26.19,1.33,.99-2.09h.02c-2.25,.13-4.5,.19-6.38,.1l-.03,.07h0s0,.02,0,.02c-.02,.04-.04,.08-.05,.12h0s0,0,0,0h0c-.02,.05-.04,.09-.06,.13h0s0,0,0,0h0s-.04,.08-.05,.12l-.02,.03s-.04,.07-.06,.1v.02s-.05,.08-.08,.11v.02s-.06,.07-.08,.11v.02s-.06,.07-.08,.1h0s0,.01,0,.01c-.03,.04-.05,.07-.08,.11h0s0,.01,0,.01c-.03,.03-.05,.07-.08,.1h-.01s-.06,.08-.09,.11h0s0,0,0,0c-.03,.03-.06,.07-.09,.1h-.01s-.06,.07-.09,.1h-.01s-.07,.07-.1,.1c-.04,.03-.07,.06-.11,.09h0c-.08,.06-.16,.12-.24,.17-2.67,1.7-18.07,1.03-18.07,1.03h0s0,0,0,0h0s0,0,0,0h0s0,0,0,0h0s0,0,0,0h0s0,0,0,0h0s0,0,0,0h0s0,.01,0,.01h0s0,0,0,0h0s0,.01,0,.01h0s0,.01,0,.01h0s0,.01,0,.01h0s0,.02,0,.02h0s0,.01,0,.01h0s0,.02,0,.02h0s0,.02,0,.02h0s0,.03,0,.03h0s0,.02,0,.02h0s0,.03,0,.03v.02s0,.02,0,.02v.02s0,0,0,0v.02s0,.02,0,.02v.02s0,0,0,0h0s0,.03,0,.03v.02s0,0,0,0h0s0,.03,0,.03v.02s0,0,0,0h0s0,.03,0,.03v.02s0,.01,0,.01h0s0,.03,0,.03v.02s0,.02,0,.02h0s0,.03,0,.03v.03s-.01,.03-.01,.03v.03s-.01,.03-.01,.03v.02s0,0,0,0v.03s-.01,.03-.01,.03v.03s-.01,.03-.01,.03v.03s-.02,.06-.02,.06v.03s-.01,.03-.01,.03h0s0,.03,0,.03v.03c-.2,.84-.47,2.08-.7,3.46h63.16v66.46l8.97,.24-1.09-68.15-.12-6.43Z"></path><path class="cls-8" d="M123.02,167.31l-54.07-1.53c-5.14,.21-11.08-.05-11.08-.05h0s0,0,0,0h0s0,0,0,0h0s0,0,0,0h0s0,0,0,0h0s0,0,0,0h0s0,0,0,0h0s0,.01,0,.01h0s0,0,0,0h0s0,.01,0,.01h0s0,.01,0,.01h0s0,.01,0,.01h0s0,.02,0,.02h0s0,.01,0,.01h0s0,.02,0,.02h0s0,.02,0,.02h0s0,.03,0,.03h0s0,.02,0,.02h0s0,.03,0,.03v.02s0,.02,0,.02v.02s0,0,0,0v.02s0,.02,0,.02v.02s0,0,0,0h0s0,.03,0,.03v.02s0,0,0,0h0s0,.03,0,.03v.02s0,0,0,0h0s0,.03,0,.03v.02s0,.01,0,.01h0s0,.03,0,.03v.02s0,.02,0,.02h0s0,.03,0,.03v.03s-.01,.03-.01,.03v.03s-.01,.03-.01,.03v.02s0,0,0,0v.03s-.01,.03-.01,.03v.03s-.01,.03-.01,.03v.03s-.02,.06-.02,.06v.03s-.01,.03-.01,.03h0s0,.03,0,.03v.03c-.2,.84-.47,2.08-.7,3.46h63.16v66.46l4.49,.12,.15-66.52,3.2-4.1-.07-3.84-4.82,4.91Z"></path><path class="cls-19" d="M171.07,41.92s-11.28-.97-11.88-.49c-.61,.49-3.56,19.57,7.76,19.04l.41,3.17c3.54-.15,7.64-.12,11.09,.04l-.59-12.43s-5.82-2.55-6.79-9.34Z"></path><path class="cls-14" d="M165.55,55.57c-2.64-3.52-2.02-10.55-1.49-14.14-2.43-.13-4.61-.19-4.87,.02-.61,.49-3.56,19.57,7.76,19.04l.41,3.17c1.42-.06,2.93-.09,4.45-.1-.33-5.2,.77-9.45,.77-9.45,0,0-3.4,6.31-7.03,1.46Z"></path><path class="cls-5" d="M163.55,33.68c-4.49,.61-10.55-.24-10.55-.24,.24,7.76,6.18,8,6.18,8,.61-.49,11.88,.49,11.88,.49,.97,6.79,6.79,9.34,6.79,9.34l.3,6.43c11.22-26.44-10.13-24.62-14.61-24.01Z"></path><path class="cls-24" d="M201.15,74.18c-.97,0-12.01-8.85-16.13-9.82-4.12-.97-20.37-1.21-24.86,.12-4.49,1.33-17.46,18.43-17.46,18.43,0,0,10.31,5.09,11.4,6.79,1.09,1.7,2.18,30.32,2.18,30.32,.85,1.46,9.22,8.13,15.64,5.82,6.43-2.3,15.52-2.3,16.98-6.79,1.46-4.49,1.58-35.29,1.58-35.29l6.67,1.46c2.91-2.79,4.97-11.04,4-11.04Z"></path><path class="cls-10" d="M164.95,122.34c-10.54-5.02-6.92-46.64-6.92-46.64-1.94,7.64-6.28,12.16-6.28,12.16,1.17,.74,2.07,1.41,2.35,1.84,1.09,1.7,2.18,30.32,2.18,30.32,.72,1.23,6.77,6.16,12.51,6.3-.43-1.51-1.62-2.92-3.84-3.98Z"></path><path class="cls-10" d="M187.74,72.54s-.86,45.79-5.82,48.42c-.88,.46-1.12,1.41-.87,2.6,3.81-.89,7.04-2,7.86-4.52,1.46-4.49,1.58-35.29,1.58-35.29l6.67,1.46c.75-.72,1.44-1.8,2.04-3.01,0,0-9.65-1.78-11.45-9.66Z"></path><path class="cls-1" d="M156.28,120.02l4.49,109.75-8,4.97s14.79,.24,16.13-1.09c1.33-1.33-.61-1.21,0-6.31,.27-2.31,1.85-19.71,3.55-38.98l2.62-40.41-9.28-25.6c-4.68-.03-8.93-1.35-9.5-2.34Z"></path><path class="cls-30" d="M172.4,121.36c-2.07,.74-4.4,1.02-6.62,1l10.63,105.35-5.09,6.06,11.4-.12s7.88-106.96,6.19-114.6c-1.46,4.49-10.07,0-16.49,2.3Z"></path><path class="cls-19" d="M206.66,52.59c-1.52,3.21-1.82,19.71-2.18,21.4-.36,1.7-3.12,.49-3.12,.49h0c.24,1.35-1.25,6.83-3.39,9.76h0s8.69,2.48,11.84,.54c3.15-1.94,1.33-23.71,1.46-25.83,.12-2.12,3.03-3.58,3.94-4.67,.91-1.09-1.33-3.64-1.33-3.64l3.88-4.73s-9.58,3.46-11.1,6.67Z"></path><path class="cls-14" d="M209.8,56.71c-1.28,3.29,.86,21.76-2,22.99-2.04,.87-5.79,.75-7.78,.6-.56,1.44-1.26,2.87-2.05,3.95h0s8.69,2.48,11.84,.54c3.15-1.94,1.33-23.71,1.46-25.83,.12-2.12,3.03-3.58,3.94-4.67,.91-1.09-1.33-3.64-1.33-3.64,0,0-2.8,2.77-4.08,6.05Z"></path><polygon class="cls-19" points="157.56 120.9 157.56 120.9 157.53 120.88 157.56 120.9"></polygon><path class="cls-19" d="M155.95,112.55s-7.02-11.51-7.86-16.48c-.85-4.97,3.65-8.2,3.66-8.21-2.17-1.38-5.29-3.03-7.24-4.03,0,0-5.75,7.99-6.48,10.91-.73,2.91,16.37,21.71,15.64,26.07s2.94,7.39,2.94,7.39h0s-.33-8.17-.33-8.17c0,0-.12-3.17-.32-7.47Z"></path><path class="cls-14" d="M148.09,96.07c-.85-4.97,3.65-8.2,3.66-8.21-.93-.59-2.04-1.23-3.16-1.85,0,0-4.21,6.91-4.09,10.42,.12,3.52,11.78,23.59,11.78,23.59,0,0-.12-3.17-.32-7.47,0,0-7.02-11.51-7.86-16.48Z"></path><path class="cls-32" d="M76.25,224.5c-2.33,.31-4.44-.11-5.72-.48l-.97,10.41,18.43,1.33-10.91-5.7s-.13-3.02-.83-5.57Z"></path><polygon class="cls-32" points="87.46 219.83 82.49 219.71 82.54 228.61 98.19 230.19 88.36 224.61 87.46 219.83"></polygon><path class="cls-4" d="M146.27,.58h-59.65c-3.57,0-6.49,2.92-6.49,6.49V30.89c0,3.57,2.92,6.49,6.49,6.49h44.4c9.1,6.02,20.78,9.26,20.78,9.26-7.9-2.73-8.9-9.26-8.9-9.26h3.37c3.57,0,6.49-2.92,6.49-6.49V7.08c0-3.57-2.92-6.49-6.49-6.49Z"></path><path class="cls-35" d="M146.27,0h-59.65c-1.95,0-3.72,.8-5,2.08-1.28,1.28-2.08,3.05-2.08,5V30.89c0,1.95,.8,3.72,2.08,5s3.05,2.08,5,2.08h44.23c9.16,6.01,20.76,9.23,20.8,9.24l.35-1.11h-.03s0-.01,0-.01c-6.02-2.1-7.83-6.44-8.32-8.12h2.63c1.95,0,3.72-.8,5-2.08,1.28-1.28,2.08-3.05,2.08-5V7.08c0-1.95-.8-3.72-2.08-5-1.28-1.28-3.05-2.08-5-2.08Zm5.91,30.89c0,1.63-.67,3.1-1.74,4.17-1.07,1.07-2.55,1.74-4.17,1.74h-4.05l.11,.68s.57,3.7,4.11,6.78c-4.18-1.53-10.03-4.01-15.1-7.36l-.32-.1h-44.4c-1.63,0-3.1-.67-4.17-1.74-1.07-1.07-1.74-2.55-1.74-4.17V7.08c0-1.63,.67-3.1,1.74-4.17,1.07-1.07,2.55-1.74,4.17-1.74h59.65c1.63,0,3.1,.67,4.17,1.74,1.07,1.07,1.74,2.55,1.74,4.17V30.89Z"></path><polygon class="cls-27" points="84.92 7.06 84.92 27.67 103.51 27.67 103.51 13.12 96.94 7.06 84.92 7.06"></polygon><polygon class="cls-17" points="96.94 13.12 103.51 13.12 96.94 7.06 96.94 13.12"></polygon><rect class="cls-33" x="87.47" y="23.48" width="13.49" height="1.21"></rect><rect class="cls-33" x="87.47" y="20.05" width="13.49" height="1.21"></rect><rect class="cls-33" x="87.47" y="16.61" width="13.49" height="1.21"></rect><rect class="cls-34" x="110.63" y="13.93" width="3.08" height="12.63"></rect><rect class="cls-34" x="120.43" y="15.29" width="3.08" height="11.28"></rect><rect class="cls-34" x="115.53" y="18.38" width="3.08" height="8.18"></rect><polygon class="cls-27" points="137.36 19.69 147.02 14.07 127.7 14.07 137.36 19.69"></polygon><polygon class="cls-27" points="137.36 20.8 137.12 20.66 126.75 14.62 126.75 26.43 147.97 26.43 147.97 14.62 137.6 20.66 137.36 20.8"></polygon><rect class="cls-34" x="122.85" y="48.54" width="4.43" height="24.82"></rect><rect class="cls-34" x="129.89" y="57.28" width="4.43" height="16.08"></rect><rect class="cls-34" x="136.93" y="51.2" width="4.43" height="22.16"></rect><path class="cls-26" d="M210.41,113.31c-6.85,0-12.41,5.56-12.41,12.41s5.56,12.41,12.41,12.41,12.41-5.56,12.41-12.41-5.56-12.41-12.41-12.41Z"></path><path class="cls-4" d="M51.25,60.58H11c-2.41,0-4.38,1.97-4.38,4.38v16.07c0,2.41,1.97,4.38,4.38,4.38h29.96c6.14,4.06,14.02,6.25,14.02,6.25-5.33-1.84-6-6.25-6-6.25h2.27c2.41,0,4.38-1.97,4.38-4.38v-16.07c0-2.41-1.97-4.38-4.38-4.38Z"></path><path class="cls-35" d="M51.25,60.18H11c-1.31,0-2.51,.54-3.37,1.4-.87,.86-1.4,2.06-1.4,3.37v16.07c0,1.31,.54,2.51,1.4,3.37,.87,.87,2.06,1.4,3.37,1.4h29.84c6.18,4.06,14.01,6.23,14.03,6.23l.23-.75h-.02s0,0,0,0c-4.06-1.41-5.29-4.35-5.61-5.48h1.78c1.31,0,2.51-.54,3.37-1.4,.87-.87,1.4-2.06,1.4-3.37v-16.07c0-1.31-.54-2.51-1.4-3.37-.87-.86-2.06-1.4-3.37-1.4Zm3.99,20.84c0,1.1-.45,2.09-1.17,2.82-.72,.72-1.72,1.17-2.82,1.17h-2.74l.08,.46s.38,2.49,2.77,4.58c-2.82-1.03-6.77-2.71-10.19-4.97l-.22-.07H11c-1.1,0-2.09-.45-2.82-1.17s-1.17-1.72-1.17-2.82v-16.07c0-1.1,.45-2.09,1.17-2.82,.72-.72,1.72-1.17,2.82-1.17H51.25c1.1,0,2.09,.45,2.82,1.17s1.17,1.72,1.17,2.82v16.07Z"></path><path class="cls-29" d="M14.11,69.11c-2.27,0-4.11,1.84-4.11,4.11s1.84,4.11,4.11,4.11,4.11-1.84,4.11-4.11-1.84-4.11-4.11-4.11Zm.77,6.28c-.14,.03-.27,.18-.27,.33v.27c0,.15-.1,.27-.24,.27h-.4c-.09,0-.16-.12-.16-.27v-.27c0-.15-.12-.29-.27-.32-.44-.09-.88-.26-1.23-.5-.12-.08-.16-.27-.1-.41l.31-.63c.07-.14,.2-.15,.31-.05,.23,.22,.46,.41,.72,.53,.14,.06,.26-.03,.26-.18v-.34c0-.15-.12-.31-.27-.35-.59-.18-1.17-.47-1.17-1.26,0-.67,.44-1.15,1.16-1.32,.15-.04,.27-.18,.27-.33v-.14c0-.15,.07-.27,.16-.27h.4c.13,0,.24,.12,.24,.27v.14c0,.15,.12,.29,.27,.32,.32,.07,.63,.17,.9,.3,.13,.07,.18,.25,.12,.39l-.31,.65c-.07,.14-.19,.15-.3,.05-.12-.12-.27-.23-.43-.31-.14-.07-.26,.02-.26,.17v.27c0,.15,.12,.31,.26,.35,.58,.19,1.15,.5,1.15,1.3,0,.71-.47,1.15-1.14,1.32Z"></path><path class="cls-29" d="M13.68,71.96s-.05,.1-.05,.16c0,.07,.02,.12,.05,.18,.06,.08,.14,0,.14-.15h0c0-.16-.08-.26-.14-.18Z"></path><path class="cls-29" d="M14.61,74.13h0c0,.16,.07,.25,.12,.17,.03-.05,.04-.1,.04-.16,0-.06-.01-.12-.05-.16-.05-.08-.12,0-.12,.16Z"></path><polygon class="cls-29" points="23.32 68.75 23.32 73.22 23.32 77.7 27.2 75.46 31.08 73.22 27.2 70.98 23.32 68.75"></polygon><path class="cls-29" d="M36.08,66.95c-1.16,0-2.1,.94-2.1,2.1s.94,2.1,2.1,2.1,2.1-.94,2.1-2.1-.94-2.1-2.1-2.1Z"></path><path class="cls-29" d="M36.08,66.08c-1.64,0-2.97,1.33-2.97,2.97s1.33,2.97,2.97,2.97,2.97-1.33,2.97-2.97-1.33-2.97-2.97-2.97Zm0,5.06c-1.16,0-2.1-.94-2.1-2.1s.94-2.1,2.1-2.1,2.1,.94,2.1,2.1-.94,2.1-2.1,2.1Z"></path><path class="cls-29" d="M42.74,75c-.94,0-1.69,.76-1.69,1.69s.76,1.69,1.69,1.69,1.69-.76,1.69-1.69-.76-1.69-1.69-1.69Z"></path><path class="cls-29" d="M48.66,65.26c-1.67,0-3.03,1.36-3.03,3.03s1.36,3.03,3.03,3.03,3.03-1.36,3.03-3.03-1.36-3.03-3.03-3.03Z"></path><polygon class="cls-13" points="244.44 210.49 222.66 210.49 233.08 231.78 234.02 231.78 258.47 231.78 259.41 231.78 269.83 210.49 248.05 210.49 244.44 210.49"></polygon><path class="cls-15" d="M246.25,231.78h13.17l10.42-21.29h-20.52s7.73,11.44-3.07,21.29Z"></path><path class="cls-16" d="M277.99,156.85c-.93-5.67-11.91,6.94-10.87-5.78,1.04-12.72-9.94-16.54-12.95,.81-3.01,17.34-2.78-7.4-10.64-6.01-7.86,1.39,7.05,32.38,.46,31.68-6.59-.69-21.05,2.08-11.91,14.45,7.63,10.33,13.64,12.68,14.61,18.49h9.21c1.08-5.87,4.01-15.24,11.85-20.52,12.03-8.09,10.64-10.64,9.02-13.18-1.62-2.54-11.45,2.78-10.7-1.85,.75-4.63,12.83-12.43,11.91-18.1Z"></path><path class="cls-6" d="M258.86,172.1c3.15-.35,6.85-2.92,11.14-9.2l-1.46-1c-3.4,4.99-6.39,7.25-8.97,7.8,2.85-10.62,2.96-22.27,2.96-22.32l-1.77-.02s-.11,11.99-3.02,22.45c-7.19-.72-10.71-14.85-10.73-14.91l-1.71,.44c.02,.06,3.85,15.44,11.76,16.73-1.28,3.89-2.99,7.42-5.3,9.85-2.55,2.68-3.47,5.3-3.52,8.29-8.14-.11-11.07-7.97-11.08-8l-1.65,.65s3.46,9.26,12.8,9.25c.19,2.24,.74,4.72,1.37,7.58,.68,3.08,1.46,6.62,1.99,10.82h1.79c-.54-4.37-1.35-8.03-2.05-11.2-.61-2.78-1.14-5.17-1.31-7.31,4.4-.53,9.96-3.02,16.88-9.03l-1.16-1.34c-6.52,5.66-11.71,7.99-15.77,8.48,.1-2.55,.91-4.77,3-6.97,2.59-2.72,4.47-6.7,5.84-11.03Z"></path><path class="cls-16" d="M232.08,192c-5.14-6.96-2.81-10.88,1.38-12.86-.15-3.52-1.25-7.4-5.19-8.42-7.63-1.97-4.39,9.6-10.41-3.82-6.01-13.41-10.75,3.93-4.51,11.68,6.24,7.75-7.52,6.71-6.01,11.22,1.5,4.51,17,1.39,17.34,6.01,.35,4.63-6.13,4.16-4.97,7.98,1.05,3.47,12.59-2.42,15.31,6.7h11.68c-.97-5.81-6.98-8.16-14.61-18.49Z"></path><path class="cls-21" d="M232.08,192c-5.14-6.96-2.81-10.88,1.38-12.86-.07-1.68-.36-3.44-1.06-4.93-3.49,2.38-8.55,7.07-6.6,13.39,2.29,7.41,12.38,15.61,13.93,22.89h6.97c-.97-5.81-6.98-8.16-14.61-18.49Z"></path><path class="cls-16" d="M272.78,202.64c-15.38,2.54,2.43-3.47-6.13-5.78-3.22-.87-6.15,1.97-8.55,5.84-1.11,2.83-1.79,5.56-2.2,7.79h9.79c7.6-5.59,18.16-9.69,7.09-7.86Z"></path><path class="cls-21" d="M258.1,202.7c-1.11,2.83-1.79,5.56-2.2,7.79h3.93c1.51-6.03,4.8-10.74,7.19-13.53-.12-.04-.24-.07-.37-.11-3.22-.87-6.15,1.97-8.55,5.84Z"></path><path class="cls-6" d="M235.12,195.83c-.28-.33-.57-.68-.86-1.03-.24,.86-.55,1.6-.91,2.25-2.56-4.07-5.28-8.26-7.81-12.09,1.46-1.89,2.3-4.76,1.84-9.09l-1.1,.12c.39,3.68-.26,6.2-1.44,7.9-5.15-7.81-9.31-13.89-9.34-13.94l-.91,.62s4.29,6.27,9.52,14.21c-3.72,3.82-10.65,2.18-10.68,2.17l-.24,1.08s7.45,1.76,11.6-2.22c2.57,3.9,5.33,8.16,7.91,12.26-3.3,4.38-9.17,2.76-9.19,2.76l-.28,1.07s6.4,1.76,10.13-2.78c2.62,4.18,5.02,8.16,6.8,11.37h1.26c-1.88-3.44-4.51-7.78-7.37-12.35,.41-.66,.78-1.43,1.07-2.32Z"></path><path class="cls-27" d="M283.99,62.39l-.6,.35-.6-.35-12.62-7.22c-2.07,3.61-5.96,6.04-10.42,6.04-1.01,0-1.99-.13-2.93-.36l.12,16.17,53.12-.4-.22-29.55-25.85,15.32Z"></path><path class="cls-27" d="M271.75,49.21c0,1.31-.21,2.58-.6,3.76l12.23,7,24.07-14.27-36.14,.27c.29,1.03,.44,2.11,.44,3.23Z"></path><path class="cls-27" d="M259.75,39.99c-5.09,0-9.22,4.13-9.22,9.22s4.13,9.22,9.22,9.22,9.22-4.13,9.22-9.22-4.13-9.22-9.22-9.22Zm1.79,4.1l-.35,1.03-.07,.18c-.03,.12-.05,.51-.05,.89v.56l-.02,1.41v4.05c0,.38,.1,.99,.21,1.36l.23,.74c.12,.36-.1,.66-.48,.66h-2.93c-.38,0-.6-.3-.48-.66l.23-.71c.12-.36,.21-.98,.21-1.36v-5.61c0-.38-.07-.69-.13-.69h-.12s-.31,.08-.68,.18l-.76,.21c-.36,.12-.6-.12-.5-.48,.15-.51,.33-1.21,.46-1.72l.18-.69h4.88c.2,0,.25,.28,.13,.65Z"></path><path class="cls-27" d="M36.76,24.39c0,.76-.12,1.48-.35,2.16l7.03,4.02,13.84-8.2-20.78,.16c.17,.59,.25,1.21,.25,1.86Z"></path><path class="cls-27" d="M43.8,31.97l-.34,.2-.35-.2-7.26-4.15c-1.19,2.07-3.43,3.47-5.99,3.47-.58,0-1.15-.07-1.69-.21l.07,9.3,30.54-.23-.13-16.99-14.86,8.8Z"></path><path class="cls-27" d="M29.86,19.09c-2.93,0-5.3,2.37-5.3,5.3s2.37,5.3,5.3,5.3,5.3-2.37,5.3-5.3-2.37-5.3-5.3-5.3Zm1.03,2.36l-.2,.59-.04,.1c-.02,.07-.03,.29-.03,.51v1.13s0,2.33,0,2.33c0,.22,.06,.57,.12,.78l.13,.43c.07,.21-.06,.38-.28,.38h-1.68c-.22,0-.34-.17-.28-.38l.13-.41c.07-.21,.12-.56,.12-.78v-3.22c0-.22-.04-.4-.08-.4h-.07s-.18,.05-.39,.1l-.44,.12c-.21,.07-.34-.07-.29-.28,.09-.29,.19-.69,.27-.99l.1-.4h2.81c.11,0,.14,.16,.08,.37Z"></path><polygon class="cls-27" points="253.91 99.14 253.91 128.43 280.33 128.43 280.33 107.75 271 99.14 253.91 99.14"></polygon><polygon class="cls-17" points="271 107.75 280.33 107.75 271 99.14 271 107.75"></polygon><rect class="cls-33" x="257.54" y="122.47" width="19.17" height="1.72"></rect><rect class="cls-33" x="257.54" y="117.59" width="19.17" height="1.72"></rect><rect class="cls-33" x="257.54" y="112.71" width="19.17" height="1.72"></rect></svg> 