<svg width="15" height="15" viewBox="0 0 15 15" fill="none" xmlns="http://www.w3.org/2000/svg">
<path d="M7.94644 1.25025C8.29019 1.244 8.61581 1.36837 8.85894 1.6065C9.10331 1.83712 9.23394 2.1565 9.23394 2.494C9.23394 3.1815 9.80269 3.73837 10.5096 3.73837C10.7277 3.73837 10.9464 3.67525 11.1408 3.569C11.7464 3.24337 12.5027 3.45025 12.8464 4.0315L13.2721 4.76275C13.3783 4.95025 13.4402 5.16275 13.4402 5.3815C13.4402 5.82525 13.1971 6.23837 12.8033 6.4565C12.6089 6.56275 12.4464 6.72525 12.3346 6.91337C12.0027 7.50025 12.2096 8.24337 12.8033 8.58212C13.4027 8.92525 13.6089 9.67587 13.2721 10.269L12.8464 10.9759C12.6214 11.3627 12.2027 11.6009 11.7527 11.6009C11.5277 11.6009 11.3027 11.544 11.1158 11.4315C10.9152 11.3252 10.6971 11.2627 10.4777 11.2627C10.1402 11.2627 9.81519 11.3946 9.57831 11.6315C9.33394 11.8634 9.20269 12.1815 9.20269 12.5127C9.20269 13.194 8.63456 13.7502 7.92769 13.7502H7.07206C6.73394 13.7502 6.41519 13.6127 6.18394 13.3815C5.94644 13.144 5.82206 12.8315 5.82206 12.5065C5.82206 11.819 5.25894 11.2627 4.55331 11.2627C4.32144 11.2627 4.09644 11.3252 3.90269 11.4446C3.60894 11.6065 3.25894 11.6502 2.93394 11.569C2.60894 11.4815 2.32769 11.269 2.15894 10.9877L1.75956 10.2815C1.57144 9.98837 1.51519 9.63775 1.60331 9.3065C1.69019 8.97525 1.91581 8.694 2.22144 8.52525C2.41581 8.419 2.57769 8.26275 2.69019 8.069C3.01581 7.4815 2.80894 6.744 2.22144 6.40025C1.62769 6.06275 1.42144 5.319 1.75956 4.7315L2.15894 4.0315C2.32769 3.73837 2.60894 3.52525 2.94019 3.43775C3.27206 3.35025 3.62144 3.39962 3.91519 3.569C4.11519 3.67525 4.33394 3.7315 4.55331 3.7315C4.89081 3.7315 5.21519 3.60025 5.45269 3.369C5.69019 3.13775 5.82206 2.819 5.82206 2.494C5.82206 1.8065 6.39019 1.25025 7.09644 1.25025H7.94644ZM8.19706 5.92587C7.54081 5.6565 6.78394 5.80025 6.27769 6.294C5.77769 6.7815 5.62144 7.52525 5.89644 8.16337C6.16581 8.8065 6.80269 9.22525 7.51519 9.22525H7.52206C7.99081 9.2315 8.42831 9.05087 8.75894 8.72525C9.09019 8.4065 9.27769 7.969 9.27769 7.51275C9.28394 6.819 8.85269 6.18775 8.19706 5.92587Z" fill="black"/>
</svg>
